<?xml version="1.0" encoding="utf-8"?>
<!-- Generator: Adobe Illustrator 19.1.0, SVG Export Plug-In . SVG Version: 6.00 Build 0)  -->
<svg version="1.1" id="Layer_1" xmlns="http://www.w3.org/2000/svg" xmlns:xlink="http://www.w3.org/1999/xlink" x="0px" y="0px"
	 width="154px" height="55.5px" viewBox="0 0 154 55.5" enable-background="new 0 0 154 55.5" xml:space="preserve">
<g>
	<path fill="#111C24" d="M52.6,29.8c0,0-0.4-0.2-0.4-0.2c-1.8-0.8-2.8-1.7-2.8-2.5c0-0.6,0-1.4,1.9-1.4c1.4,0,3,0.6,4.7,1.8
		c0,0,0.3,0.2,1.8,1.5c1.6,1.4,2,1.5,2.4,1.5c1.1,0,1.7-0.8,1.7-1.5c0-0.3-0.1-0.6-0.2-1c0,0,0-0.1,0-0.1l-2.5-4.6c0,0,0,0,0-0.1
		c-0.2-0.3-0.6-0.7-1.4-0.7c0,0,0,0,0,0c-0.2,0-0.4,0.1-0.7,0.2c-0.3,0.2-0.6,0.2-0.8,0.2c-0.5,0-1.3-0.1-2.4-0.3
		c-1.2-0.2-2.1-0.3-2.7-0.3c-1.9,0-3.5,0.5-4.9,1.4c-1.6,1.1-2.4,2.7-2.4,4.7c0,1.9,1,3.7,3.1,5.2c0,0,0.1,0.1,0.1,0.1
		c3,1.6,5.5,2.9,7.4,3.7c1.5,0.8,2.2,1.4,2.5,1.7c0.6,0.6,0.9,1.4,0.9,2.3c0,1.5-0.4,3.1-3.6,3.1c-1.4,0-2.6-0.4-3.8-1.3
		c-0.8-0.6-1.9-1.7-3.1-3.3c-0.2-0.3-0.4-0.6-0.7-0.9c-0.9-1.2-1.6-1.7-2.4-1.7c-1.2,0-1.7,0.8-1.7,1.6c0,0.4,0.1,0.8,0.4,1.2
		c0,0,3.6,6,3.9,6.6l0,0c0,0.1,0.1,0.1,0.1,0.2c0.3,0.3,0.6,0.7,1.2,0.7c0.3,0,0.6-0.1,1.1-0.4c0.2-0.1,0.3-0.1,0.4-0.2
		c0.1,0,0.6,0.1,2.1,0.5c1.5,0.4,2.6,0.6,3.6,0.6c2.4,0,4.4-0.6,5.9-1.9c1.8-1.4,2.6-3.4,2.6-5.8C63.9,36.8,60.2,33.3,52.6,29.8"/>
	<path fill="#111C24" d="M115,29.4c0-0.7-0.5-1.4-1.6-1.4h-5.6c-1.1,0-1.6,0.7-1.6,1.4c0,0.8,0.7,1.2,1.7,1.7
		c0.5,0.3,0.6,0.4,0.6,0.5c0,0.4-0.1,0.9-0.2,1.3c0,0-2.9,7.2-4.3,10.8c-1.6-3.9-5.1-12.1-5.1-12.1c0-0.1,0-0.1,0-0.1v0
		c0.4-0.2,0.6-0.3,0.7-0.4c1.3-0.4,1.5-1.1,1.5-1.6c0-0.7-0.5-1.4-1.6-1.4h-8.4c-1.1,0-1.6,0.8-1.6,1.4c0,0.9,0.7,1.7,1.9,2.3
		c1,0.4,1.2,0.7,1.2,0.7c0.4,0.8,8.3,19.1,8.3,19.1c0.2,0.4,0.5,0.6,0.9,0.6h1.4c0.4,0,0.8-0.3,1-0.7l7-17.6
		c0.7-1.7,1.3-2.3,1.7-2.6c0,0,0.2-0.1,0.6-0.3C114.8,30.6,115,29.8,115,29.4"/>
	<path fill="#111C24" d="M12.8,30.1c0,0,0.1,0,0.1,0h5.4c2.1,0,2.2-1.3,2.2-1.7c0-0.3-0.1-1.7-2.2-1.7h-5.7c0-0.1-0.1-0.2-0.1-0.5
		c-0.1-0.7-0.2-1.2-0.3-1.7c-0.1-0.2-0.2-0.9-1.1-3.9c-0.6-1.9-0.7-2.9-0.7-3.3c0-0.9,0.3-1.6,0.9-2.3c0.7-0.7,1.5-1.1,2.5-1.1
		c2.4,0,2.4,0.8,2.4,1.1c0,0.1,0,0.1,0,0.1c0,0-0.3,0.2-0.9,0.2c-0.3,0-0.6,0-0.8,0c-0.5-0.1-0.9,0.2-1.1,0.6
		c-0.2,0.5-0.3,0.9-0.3,1.2c0,1,0.4,3.3,4.1,3.3c2.9,0,4.5-1.5,4.5-4.1c0-1.8-0.8-3.3-2.4-4.3c-1.3-0.8-3-1.3-5-1.3
		c-3.3,0-5.8,1.1-7.5,3.3c-1.3,1.8-2,4.1-2,6.9c0,0.7,0,1.6,0.1,2.9c0.1,1.2,0.1,2.1,0.1,2.7h-3c-2.1,0-2.2,1.5-2.2,1.8
		c0,0.3,0.1,1.7,2.1,1.7h3h0v16c0,0.2,0,0.7-1.1,1.2c-0.1,0-0.4,0.1-0.8,0.3c-0.5,0.1-1.9,0.6-1.9,1.8c0,0.3,0.1,1.6,2.1,1.6h11
		c1.4,0,1.9-0.8,2-1.6c0,0,0,0,0-0.1c0-0.8-0.6-1.1-2.4-1.9c-0.8-0.4-1.2-0.8-1.2-1.2L12.8,30.1C12.8,30.1,12.8,30.1,12.8,30.1"/>
	<path fill="#111C24" d="M26.3,34.7c0-0.1-0.1-0.4-0.1-0.7c0-1.6,0.4-3,1.1-4.2c0.8-1.2,1.9-1.8,3.3-1.8c1.3,0,2.3,0.6,3.3,1.9
		c0.8,1.1,1.3,2.3,1.4,3.5L26.3,34.7z M41.1,41.9c-0.5,0-0.9,0.2-2.2,1.6c-1.2,1.3-1.5,1.5-1.5,1.5c-1,0.7-2.2,1.1-3.5,1.1
		c-2.9,0-5-1.5-6.3-4.5c-0.6-1.3-0.9-2.5-0.9-3.3c0,0,0.1,0,0.1,0c0,0,14.4-2,14.4-2c1-0.1,1.6-0.8,1.6-1.8c0-2.5-1.3-4.8-3.9-7
		c-2.1-1.8-4.7-2.7-7.7-2.7c-3.5,0-6.4,1.2-8.6,3.6c-2.1,2.3-3.1,5.2-3.1,8.7c0,3.8,1.2,7,3.7,9.5c2.5,2.4,5.7,3.7,9.5,3.7
		c3,0,5.8-1.3,8.4-3.9c1.2-1.2,1.7-2.1,1.7-2.9C42.7,42.6,42,41.9,41.1,41.9"/>
	<path fill="#111C24" d="M121.1,38.7c0-1.5,0.3-2.7,1-3.6c0.7-0.9,1.7-1.4,3-1.4c1,0,1.8,0.2,2.5,0.7c0.5,0.4,0.8,0.9,0.9,1.6
		c0,0,0.5,3,0.5,3c0,0.1,0,0.3,0,0.7c0,1.1-0.4,2-1.1,2.7c-0.8,0.7-1.7,1.1-2.9,1.1c-1.3,0-2.3-0.4-3-1.3
		C121.5,41.2,121.1,40.1,121.1,38.7 M140.5,42c0-1-0.7-1.5-1.4-1.5c-0.5,0-0.8,0.2-1.6,1.1c-0.3,0.3-0.7,0.4-1.1,0.4
		c-0.2,0-0.4,0-0.4-0.6c0,0-1.8-12.9-1.8-12.9c-0.3-2.5-1-4.2-1.9-5.4c-1.2-1.5-3-2.2-5.4-2.2c-2.8,0-5.5,1-8.1,2.9
		c-1.8,1.3-2.6,2.4-2.6,3.4c0,1,0.7,1.6,1.6,1.6c0.4,0,0.8-0.2,1.4-0.8c1.7-1.5,3.3-2.2,4.9-2.2c1,0,3.4,0,3.7,4.9
		c-1.3-0.5-2.6-0.8-3.9-0.8c-2.6,0-4.9,0.8-6.8,2.3c-2.1,1.7-3.1,3.9-3.1,6.6c0,2.5,1,4.6,2.9,6.1c1.8,1.4,3.9,2.1,6.4,2.1
		c3,0,5.5-1,7.3-2.9c1.1,1.4,2.6,2.1,4.4,2.1c1.2,0,2.4-0.3,3.5-1C140.2,44.2,140.5,42.9,140.5,42"/>
	<path fill="#111C24" d="M78.2,47.6c-0.4,0-0.7,0.2-1.1,0.4c-0.7,0.5-1.4,0.7-2.1,0.7c-1.1,0-1.3-0.4-1.3-0.5
		c-0.1-0.1-0.3-0.6-0.3-2.3V33.7h3.2c1.5,0,2-0.9,2-1.7c0-0.8-0.5-1.7-1.9-1.7H74c-0.2,0-0.3,0-0.3,0c0,0,0-0.1,0-0.2
		c0,0,0-4.2,0-4.2c0-2.2-1.1-2.5-1.7-2.5c-0.7,0-1.1,0.5-2.4,2.9c-1.2,2.2-1.5,2.6-1.6,2.7c0,0,0,0,0,0c0,0-0.3,0.3-1.9,1.2
		c-0.4,0.2-0.7,0.4-0.9,0.5c-0.6,0.3-1.3,0.7-1.3,1.5c0,0.2,0.1,1.5,1.9,1.5h1.5v12.9c0,3.9,2.2,6,6.2,6c1,0,2.2-0.2,3.4-0.7
		c1.8-0.7,2.7-1.7,2.7-2.9C79.6,48.2,79,47.6,78.2,47.6"/>
	<path fill="#3FAE49" d="M27.7,4.9c0,0,5.3-2,15.6-3.5C53.1,0,59.6-0.2,64.4,0.1C69.2,0.4,76,2,72,7.3c-4.1,5.3-3.3,4-3.7,4.6
		c-0.4,0.6,2.5-4.6-5-4.7c-7.5-0.1-18.7,3.5-22,4.6c-3.2,1.1-17.8,6.6-17.8,6.6L27.7,4.9z"/>
	<path fill="#F6B333" d="M68.1,12.1c0,0-1.8,3.8,3,2.8c4.8-0.9,9.8-3.5,12.5-4.8c2.6-1.3,13.2-5.9,14.7-6.4c3-1.1,10.1-2.8,8,3.2
		c-0.7,2-2.6,4.4-3.1,5.2c0,0,3.3-6.7-8-3.1c-6.2,2-15.8,7.5-16.8,7.9c-1.1,0.5-7.2,4.1-10.5,5.4c-3.3,1.3-5.4,1.7-5-1.6
		C63.2,17.4,68.1,12.1,68.1,12.1"/>
	<path fill="#3FAE49" d="M103.1,12.3c0,0-2,5.3,3,2.5c5-2.8,13.7-7.4,15-7.9c1.4-0.5,14.3-6.9,17.2,5.2c0,0-3.2-9.1-16.6-2.8
		c-7.2,3.7-12.6,8-17.6,10.7c-1.7,1-10.6,4.9-5.3-2.4C101.1,14.6,103.1,12.3,103.1,12.3"/>
	<path fill="#111C24" d="M150.3,47.7c-1-0.5-1.1-1-1.1-1.4V15.5c0-0.9-0.7-1.3-1.3-1.3c-0.3,0-0.6,0.1-0.8,0.2l-6.4,2.2
		c-1,0.4-1.2,0.9-1.2,1.2c0,0.9,1.2,1.1,1.6,1.2c0.7,0.1,0.9,0.2,1,0.2c0.3,0.1,0.6,0.3,0.6,0.8v26.1c0,0.4-0.1,0.9-1.1,1.3
		c-0.2,0.1-0.4,0.2-0.7,0.3c-1,0.3-1.6,0.8-1.6,1.4c0,0.6,0.4,1.2,1.7,1.2h9.6c1.1,0,1.6-0.6,1.6-1.2
		C152.3,48.7,151.9,48.5,150.3,47.7"/>
	<path fill="#111C24" d="M88.9,43.1c-0.8-0.5-0.8-0.9-0.8-1V25.4c0-1.1-0.7-1.6-1.4-1.6c-0.2,0-0.4,0.1-0.6,0.2c0,0-0.1,0-0.1,0
		l-5.2,2.2c-1,0.4-1.2,1.1-1.2,1.5c0,0.5,0.3,1.2,1.6,1.6c0.6,0.1,0.7,0.2,0.8,0.2c0.1,0,0.2,0.1,0.2,0.4v12.2c0,0.3-0.1,0.6-0.7,1
		c-0.1,0.1-0.3,0.1-0.5,0.2c-1,0.4-1.5,0.9-1.5,1.7c0,0.8,0.5,1.5,1.8,1.5h8c1.2,0,1.7-0.8,1.7-1.6C90.8,44.1,90.2,43.8,88.9,43.1"
		/>
	<path fill="#111C24" d="M85.4,23.3c1.9,0,3.4-1.5,3.4-3.4c0-1.9-1.5-3.4-3.4-3.4c-1.9,0-3.4,1.5-3.4,3.4
		C82,21.8,83.6,23.3,85.4,23.3"/>
	<path fill="#111C24" d="M154,45.5c0-1.1-0.8-1.9-1.8-1.9c-1,0-1.8,0.7-1.8,1.9c0,1.1,0.8,1.9,1.8,1.9C153.2,47.4,154,46.7,154,45.5
		 M151.8,45.4v-0.6h0.4c0.2,0,0.4,0,0.4,0.3c0,0.3-0.2,0.3-0.5,0.3H151.8z M151.8,45.7h0.3l0.5,0.9h0.4l-0.6-0.9
		c0.3,0,0.5-0.2,0.5-0.6c0-0.4-0.3-0.6-0.8-0.6h-0.8v2.1h0.3V45.7z M153.6,45.5c0,0.9-0.6,1.5-1.4,1.5c-0.9,0-1.4-0.7-1.4-1.5
		c0-0.9,0.6-1.5,1.4-1.5C153,44,153.6,44.6,153.6,45.5"/>
	<path fill="#3FAE49" d="M109.5,55.4v-3.9h-1v-0.6h1v-0.7c0-0.4,0.1-0.7,0.4-0.8c0.2-0.2,0.6-0.3,1.1-0.3c0.1,0,0.2,0,0.3,0
		c0.1,0,0.3,0,0.5,0v0.7c-0.1,0-0.2,0-0.3,0c-0.1,0-0.1,0-0.2,0c-0.2,0-0.4,0.1-0.5,0.1c-0.1,0.1-0.1,0.3-0.1,0.6v0.4h1.1v0.6h-1.1
		v3.9H109.5z"/>
	<path fill="#3FAE49" d="M111.9,53.1c0-0.8,0.3-1.4,0.8-1.8c0.5-0.4,1.3-0.6,2.2-0.6c1,0,1.7,0.2,2.2,0.6c0.5,0.4,0.8,1,0.8,1.8
		c0,0.8-0.3,1.4-0.8,1.8c-0.5,0.4-1.3,0.6-2.2,0.6c-1,0-1.7-0.2-2.2-0.6C112.2,54.5,111.9,53.9,111.9,53.1 M113,53.1
		c0,0.6,0.2,1,0.5,1.3c0.3,0.3,0.8,0.4,1.4,0.4c0.6,0,1.1-0.1,1.4-0.4c0.3-0.3,0.5-0.7,0.5-1.3c0-0.6-0.2-1-0.5-1.3
		c-0.3-0.3-0.8-0.4-1.4-0.4c-0.6,0-1.1,0.1-1.4,0.4C113.2,52.1,113,52.5,113,53.1"/>
	<path fill="#3FAE49" d="M118.5,53.1c0-0.8,0.3-1.4,0.8-1.8c0.5-0.4,1.3-0.6,2.2-0.6s1.7,0.2,2.2,0.6c0.5,0.4,0.8,1,0.8,1.8
		c0,0.8-0.3,1.4-0.8,1.8c-0.5,0.4-1.3,0.6-2.2,0.6c-1,0-1.7-0.2-2.2-0.6C118.7,54.5,118.5,53.9,118.5,53.1 M119.5,53.1
		c0,0.6,0.2,1,0.5,1.3c0.3,0.3,0.8,0.4,1.4,0.4c0.6,0,1.1-0.1,1.4-0.4c0.3-0.3,0.5-0.7,0.5-1.3c0-0.6-0.2-1-0.5-1.3
		c-0.3-0.3-0.8-0.4-1.4-0.4c-0.6,0-1.1,0.1-1.4,0.4C119.7,52.1,119.5,52.5,119.5,53.1"/>
	<path fill="#3FAE49" d="M130.8,49.1v6.3h-1v-0.6c-0.3,0.2-0.6,0.4-0.9,0.5c-0.3,0.1-0.7,0.2-1.1,0.2c-0.8,0-1.5-0.2-2-0.6
		c-0.5-0.4-0.7-1-0.7-1.8c0-0.7,0.3-1.3,0.7-1.8c0.5-0.4,1.2-0.7,2-0.7c0.4,0,0.8,0.1,1.2,0.2c0.3,0.1,0.6,0.3,0.9,0.5v-2.3H130.8z
		 M129.8,53.1c0-0.6-0.2-1-0.5-1.3c-0.3-0.3-0.8-0.4-1.4-0.4c-0.6,0-1.1,0.2-1.4,0.5c-0.3,0.3-0.5,0.8-0.5,1.3
		c0,0.5,0.2,0.9,0.5,1.2c0.3,0.3,0.8,0.4,1.4,0.4c0.6,0,1-0.2,1.4-0.5C129.7,54.1,129.8,53.6,129.8,53.1"/>
	<path fill="#3FAE49" d="M131.5,53.9h1c0,0.3,0.2,0.5,0.5,0.7c0.3,0.2,0.6,0.2,1.1,0.2c0.5,0,0.8-0.1,1.1-0.2
		c0.3-0.1,0.4-0.3,0.4-0.5c0-0.2-0.1-0.3-0.2-0.4c-0.1-0.1-0.4-0.2-0.8-0.2l-1.2-0.2c-0.7-0.1-1.1-0.3-1.4-0.5
		c-0.3-0.2-0.4-0.5-0.4-0.8c0-0.4,0.2-0.7,0.6-1c0.4-0.2,1-0.4,1.7-0.4c0.7,0,1.3,0.1,1.8,0.4c0.4,0.3,0.7,0.6,0.7,1v0h-1
		c0-0.2-0.2-0.4-0.4-0.6c-0.2-0.1-0.6-0.2-1-0.2c-0.4,0-0.7,0.1-1,0.2c-0.2,0.1-0.3,0.3-0.3,0.5c0,0.1,0.1,0.3,0.2,0.3
		c0.1,0.1,0.4,0.2,0.8,0.2l1,0.2c0.7,0.1,1.2,0.3,1.5,0.5c0.3,0.2,0.4,0.5,0.4,0.8c0,0.5-0.2,0.8-0.7,1.1c-0.5,0.3-1.1,0.4-1.9,0.4
		c-0.8,0-1.4-0.1-1.9-0.4C131.7,54.8,131.5,54.4,131.5,53.9"/>
</g>
</svg>
